PathFileType	4	(X/Y/Z)	./resultDataOpenSim/trcMotMarkerGrf/sub10/qtm-03-08.trc
DataRate	CameraRate	NumFrames	NumMarkers	Units	OrigDataRate	OrigDataStartFrame	OrigNumFrames
250.000000	250.000000	13	24	m	250.000000	311	496
Frame#	Time	L.Toe.Tip			R.Toe.Tip			L.Ankle.Lat			R.Ankle.Lat			L.Ankle.Med			R.Ankle.Med			L.Heel			R.Heel			L.Knee.Lat			R.Knee.Lat			L.Knee.Med			R.Knee.Med			L.Thigh.Upper			R.Thigh.Upper			L.ASIS			R.ASIS			V.Sacral			L.Acromium			R.Acromium			C7			L.Elbow			R.Elbow			L.Wrist.Lat			R.Wrist.Lat
		X1	Y1	Z1	X2	Y2	Z2	X3	Y3	Z3	X4	Y4	Z4	X5	Y5	Z5	X6	Y6	Z6	X7	Y7	Z7	X8	Y8	Z8	X9	Y9	Z9	X10	Y10	Z10	X11	Y11	Z11	X12	Y12	Z12	X13	Y13	Z13	X14	Y14	Z14	X15	Y15	Z15	X16	Y16	Z16	X17	Y17	Z17	X18	Y18	Z18	X19	Y19	Z19	X20	Y20	Z20	X21	Y21	Z21	X22	Y22	Z22	X23	Y23	Z23	X24	Y24	Z24

311	1.24	0.085668987	-0.0078820017	-0.12116063	0.88905115	0.059502495	0.03197313	-0.0010688134	0.093882637	-0.1614573	0.75097818	0.05222195	0.067670758	0.021796577	0.10947439	-0.082227272	0.76621236	0.084856275	-0.015098604	-0.064186086	0.11025098	-0.11699487	0.70454679	0.023048188	0.019820988	0.22356227	0.41233519	-0.19158428	0.66681273	0.44246648	0.09461756	0.23771689	0.37724439	-0.071881243	0.67583481	0.44857554	-0.033546296	0.35884626	0.77948449	-0.22928751	0.48221063	0.80695606	0.14296678	0.45193048	0.87237471	-0.19415586	0.52527541	0.89526267	0.046062929	0.29977979	0.89135587	-0.0076801456	0.45668077	1.3514789	-0.20904352	0.4230432	1.3478929	0.11132399	0.35623148	1.3782451	-0.064758635	0.56239096	1.0288631	-0.27747709	0.22957387	1.063304	0.11559492	0.79852018	1.0309048	-0.18899123	0.1614231	0.88331065	0.2615688
312	1.244	0.086858308	-0.0079182088	-0.12147215	0.89114019	0.057273201	0.033281241	0.0028655871	0.096063904	-0.16278234	0.75277148	0.052096518	0.067846801	0.026538664	0.11105239	-0.083750608	0.76846361	0.084282684	-0.015245779	-0.059251317	0.11384191	-0.11772918	0.70558379	0.023770697	0.019920271	0.23035632	0.41282901	-0.19206611	0.67301974	0.44293613	0.094220257	0.24464076	0.37692747	-0.072445782	0.68069648	0.44857459	-0.0340787	0.3663117	0.77921731	-0.2289865	0.48904848	0.80795974	0.14336168	0.45957669	0.8721802	-0.19335128	0.53232922	0.89601328	0.046753974	0.30672282	0.89204611	-0.0079346156	0.4631144	1.3522652	-0.20818044	0.42998308	1.3482605	0.11224583	0.36280174	1.3787466	-0.063597236	0.56760346	1.0289755	-0.27688211	0.23741897	1.0633247	0.11641456	0.80377505	1.0306852	-0.18858581	0.1683799	0.88345903	0.26201715
313	1.248	0.088208174	-0.0080466146	-0.1218357	0.89247466	0.054606897	0.034429082	0.0070562332	0.098183708	-0.1641607	0.7541619	0.05202382	0.067973102	0.031672171	0.11252253	-0.085404663	0.77045422	0.083706909	-0.015342413	-0.05385512	0.11744165	-0.11838045	0.7064468	0.024460394	0.019989757	0.23746479	0.41331594	-0.19262111	0.67953795	0.44373135	0.093856721	0.25188102	0.37660892	-0.073152257	0.68545553	0.44888711	-0.034589478	0.37383521	0.77890739	-0.22873715	0.49597912	0.80913908	0.14373693	0.46723707	0.87203699	-0.19246231	0.53943899	0.8968767	0.047453571	0.31364707	0.89279348	-0.0082455666	0.46957793	1.353097	-0.20731944	0.43689222	1.3487233	0.1131382	0.36940324	1.379354	-0.062469029	0.57270831	1.0291183	-0.27632146	0.24527082	1.0633592	0.11737872	0.80895488	1.0303717	-0.18828758	0.17550886	0.88357946	0.26249814
314	1.252	0.089713429	-0.0082993731	-0.12225391	0.89344877	0.051534922	0.035224999	0.011505111	0.10019974	-0.16558255	0.75526598	0.051981985	0.068026238	0.037224068	0.11385691	-0.087187154	0.77223379	0.08312822	-0.015422838	-0.047940341	0.1210163	-0.11897527	0.70716481	0.025124959	0.02009768	0.24485937	0.41377452	-0.19322402	0.68620519	0.44474892	0.093472828	0.25942466	0.37629018	-0.074019419	0.69015015	0.44948324	-0.03510195	0.38139107	0.77854681	-0.22853943	0.50301455	0.81047176	0.14408715	0.47488979	0.87194976	-0.19149133	0.54658017	0.89785023	0.048150508	0.32056103	0.89356331	-0.0086039285	0.47606061	1.3539587	-0.20644663	0.44376385	1.3492678	0.1139957	0.37602599	1.3800427	-0.06137607	0.57770868	1.0292875	-0.27580397	0.25313568	1.0633842	0.11836676	0.81403811	1.0299271	-0.18806396	0.18280238	0.8836701	0.26300674
315	1.256	0.091334328	-0.0086966966	-0.12273331	0.89447246	0.048473127	0.035484691	0.016231589	0.10208777	-0.1670391	0.75628964	0.051942986	0.068005851	0.043203919	0.11503598	-0.089081325	0.77382182	0.082553615	-0.015542199	-0.041521541	0.12454768	-0.11954994	0.70780813	0.02576171	0.020281093	0.25255238	0.41418879	-0.19387842	0.69278836	0.44588109	0.093025734	0.26724758	0.37595518	-0.075041117	0.69480881	0.4503063	-0.035633686	0.38895704	0.77814032	-0.22838481	0.51016835	0.81194084	0.14440776	0.4825108	0.87192202	-0.19044125	0.55373227	0.89890273	0.048828771	0.32749634	0.89433614	-0.0089972764	0.48254951	1.3548452	-0.20555672	0.45060015	1.3498846	0.11481751	0.38265964	1.3807917	-0.06031542	0.58261337	1.029487	-0.27534193	0.26101177	1.0634045	0.11932987	0.81900026	1.0293219	-0.18789131	0.19025626	0.88372576	0.26353709
316	1.26	0.0930137	-0.0092353529	-0.12327475	0.89580239	0.045969296	0.035132539	0.021290277	0.10384824	-0.16852336	0.75742899	0.051905416	0.067896926	0.049588002	0.11606225	-0.091049627	0.77522543	0.082002702	-0.015750446	-0.034704074	0.12805505	-0.12011773	0.70844957	0.026365497	0.020503964	0.26059171	0.41454418	-0.19461806	0.69913884	0.44702773	0.092517249	0.27533721	0.37557092	-0.076201239	0.69945206	0.45128848	-0.03618774	0.39651588	0.77769837	-0.22825375	0.51744714	0.81353147	0.1446948	0.49007507	0.87195107	-0.18932374	0.5608768	0.90000202	0.049467975	0.33445581	0.8951025	-0.0094199759	0.48902445	1.3557501	-0.20465359	0.45739569	1.3505722	0.11560594	0.38929638	1.3815903	-0.059287688	0.58742896	1.0297204	-0.2749445	0.26891192	1.0634412	0.12027953	0.82384168	1.0285573	-0.18777499	0.19787121	0.88373933	0.26409043
317	1.264	0.094703064	-0.0098659154	-0.12386591	0.8974707	0.04432784	0.03429242	0.026748945	0.1055036	-0.1700362	0.75875838	0.051890033	0.067683347	0.0563127	0.11696957	-0.09303117	0.77645014	0.081492094	-0.016060887	-0.027606948	0.13158287	-0.12070721	0.70911989	0.02691897	0.020681473	0.2689423	0.41482306	-0.19543842	0.70522101	0.44810222	0.091971713	0.28370392	0.37508968	-0.077482591	0.7040888	0.45235674	-0.036757803	0.4040552	0.77722657	-0.22811789	0.52483914	0.81521786	0.14494856	0.49756153	0.87202505	-0.18815884	0.56799333	0.9011276	0.050046406	0.34139908	0.89586321	-0.0098713914	0.49546256	1.3566582	-0.20374482	0.46413314	1.3513331	0.11636676	0.39592827	1.3824315	-0.058296964	0.5921559	1.0299835	-0.27461785	0.27686506	1.063521	0.12124348	0.82857886	1.0276482	-0.1877248	0.20565473	0.88370436	0.26467747
318	1.268	0.096375183	-0.01047995	-0.12448976	0.89926524	0.043402622	0.033281415	0.032626099	0.10709988	-0.17158493	0.76017389	0.05191062	0.067379978	0.063275985	0.11782073	-0.094955648	0.77751664	0.081022296	-0.016447558	-0.02030146	0.13516409	-0.1213937	0.70978884	0.027392814	0.020745274	0.27746333	0.41500682	-0.19629161	0.71107099	0.44904378	0.0914146	0.29237012	0.37445026	-0.078871953	0.70871446	0.45343497	-0.037333061	0.41156694	0.77672356	-0.22795276	0.53230866	0.81695796	0.14517622	0.50495748	0.87212612	-0.18696869	0.57505795	0.90226472	0.050550075	0.3482607	0.89663529	-0.010334496	0.50185141	1.3575526	-0.2028368	0.47079969	1.352163	0.11710453	0.40254167	1.3833044	-0.057348502	0.59679085	1.0302698	-0.27436362	0.28489512	1.0636523	0.12223968	0.8332205	1.0266045	-0.1877377	0.21361689	0.88361797	0.26531332
319	1.272	0.098027976	-0.010927767	-0.12513474	0.90083224	0.042786335	0.032486947	0.038846235	0.10871193	-0.17317051	0.76144209	0.051961211	0.067041387	0.070346599	0.11869483	-0.096769498	0.77844902	0.080584431	-0.016860372	-0.012850183	0.13880849	-0.12225235	0.71038777	0.02776302	0.020695359	0.2860603	0.41508344	-0.19718041	0.71675508	0.449827	0.090874242	0.301352	0.37359545	-0.080369619	0.71331748	0.45445276	-0.037896091	0.41905171	0.77618851	-0.22775549	0.53980135	0.81870855	0.14538666	0.51226086	0.87223887	-0.18577192	0.58205039	0.90340044	0.050981034	0.35496271	0.89746013	-0.010756964	0.50819157	1.3584294	-0.20193735	0.47739308	1.3530452	0.1178191	0.40911887	1.3841971	-0.056446943	0.60132887	1.0305768	-0.27417238	0.29300061	1.0637887	0.12326488	0.83776378	1.0254309	-0.18781091	0.22175889	0.8834812	0.2660079
320	1.276	0.099696788	-0.011056322	-0.1257819	0.90190958	0.042192971	0.032176897	0.045273862	0.11043342	-0.17477695	0.76234542	0.052028868	0.066735478	0.077396452	0.11967296	-0.098451482	0.77923045	0.080177569	-0.017236534	-0.0053438882	0.14253259	-0.12331839	0.71086114	0.028027407	0.020593018	0.2947532	0.41505686	-0.19816775	0.72232481	0.45045867	0.09037635	0.31066416	0.37251118	-0.08200313	0.71789106	0.45536149	-0.038422212	0.42651998	0.77563313	-0.22755471	0.54726238	0.82044923	0.1455895	0.51947598	0.87235662	-0.18458383	0.58895887	0.9045289	0.051351515	0.36142731	0.89840045	-0.011067448	0.51448578	1.3592996	-0.20105972	0.48391583	1.3539618	0.11851132	0.41564316	1.3851019	-0.055592333	0.60577025	1.0309069	-0.27403294	0.30115749	1.0638744	0.12429687	0.84220882	1.0241306	-0.18794886	0.23006608	0.88329575	0.26675942
321	1.28	0.1014641	-0.010748715	-0.12638729	0.90250345	0.041599267	0.032340333	0.05179779	0.11234241	-0.17637529	0.76282174	0.052107012	0.066501512	0.084346069	0.12083213	-0.10000532	0.77981281	0.07981476	-0.017528377	0.0021483268	0.14638815	-0.12461284	0.7112052	0.028211456	0.020504804	0.30357083	0.41495157	-0.19927136	0.72778996	0.45096006	0.089934255	0.32033485	0.37124566	-0.083837448	0.72244248	0.45614541	-0.038884453	0.4339775	0.77508764	-0.22738879	0.55465849	0.82218892	0.14580204	0.5266056	0.87248005	-0.1834198	0.59577752	0.9056552	0.051670448	0.36763426	0.89950749	-0.011228061	0.52073122	1.3601759	-0.2002193	0.49037254	1.3549061	0.11918779	0.42209548	1.3860126	-0.054778052	0.61012976	1.0312692	-0.27395324	0.30934387	1.0639472	0.12530902	0.84657	1.0227148	-0.18816005	0.23851707	0.88306192	0.26755986
322	1.284	0.10342551	-0.0099589137	-0.12690574	0.90284277	0.041083882	0.032706386	0.058377062	0.11447371	-0.17793817	0.76297984	0.052196567	0.066329894	0.091180426	0.12224778	-0.10144543	0.78019218	0.079511652	-0.017740201	0.0096477406	0.1504452	-0.12616819	0.71145834	0.028354718	0.020455685	0.31248996	0.41480406	-0.20043553	0.73313147	0.45134457	0.089544423	0.33038195	0.36987435	-0.085943865	0.72699128	0.45681872	-0.039259916	0.44140896	0.77459167	-0.22725367	0.56198477	0.82394659	0.14604702	0.53364953	0.87261283	-0.18229425	0.60250721	0.90679006	0.05194587	0.37368944	0.90078219	-0.011279788	0.52692254	1.3610601	-0.19942744	0.49676622	1.3558787	0.1198561	0.42845138	1.3869258	-0.053995061	0.61443191	1.0316795	-0.27395538	0.3175518	1.0641133	0.12628694	0.85086713	1.0212132	-0.18845695	0.24710401	0.88278213	0.26841007
323	1.288	0.10562345	-0.0087292372	-0.12733869	0.90317103	0.040675063	0.032963946	0.065024984	0.11683065	-0.17945487	0.76299764	0.052298344	0.066181113	0.097930097	0.12399039	-0.10278743	0.78044175	0.079270674	-0.017921817	0.017260768	0.15474133	-0.12800181	0.71166165	0.028481881	0.020428619	0.32147471	0.41464722	-0.20160188	0.73832663	0.45160928	0.089184968	0.34075274	0.3684489	-0.088293286	0.7315536	0.45741019	-0.039536832	0.44878474	0.77418068	-0.22709647	0.56925242	0.82573115	0.14634023	0.54060813	0.87276155	-0.18121895	0.60915665	0.90793959	0.052194681	0.37979382	0.90217237	-0.01132623	0.53306266	1.3619435	-0.19868615	0.50309939	1.3568796	0.12051723	0.43468988	1.3878424	-0.053239763	0.61868723	1.032145	-0.27404422	0.3257739	1.0644146	0.12724633	0.85510273	1.0196529	-0.18884286	0.25583795	0.88246318	0.26932299
